<?xml version="1.0" encoding="UTF-8"?><svg id="Layer_1" xmlns="http://www.w3.org/2000/svg" viewBox="0 0 431.37 94.48"><defs><style>.cls-1{fill:#231f20;}</style></defs><path class="cls-1" d="M67.93,45.86v-.26c7.62-2.37,14.06-9.46,14.06-19.97,0-15.24-10.38-24.57-33.77-24.57H0c.39,3.15,1.31,17.21,1.31,23.78v44.02c0,13.14-.53,21.29-.66,24.57h45.86c23.26,0,37.58-10.64,37.58-26.28,0-13.14-8.8-18.79-16.16-21.29ZM41.39,72.93h-4.73v-16.03h3.68c6.18,0,9.46,2.5,9.46,7.62,0,3.68-1.58,8.41-8.41,8.41ZM41.39,38.63h-4.73v-16.03h3.68c6.18,0,9.46,2.5,9.46,7.62,0,3.68-1.58,8.41-8.41,8.41ZM121.02,1.05h-36c.39,3.15,1.31,17.21,1.31,23.78v52.3c0,4.86-.53,13.53-.66,17.08,23.92-.79,47.44-.79,71.22-.79v-2.37c0-8.67,0-14.32,1.31-21.16-6.7.39-13.27.53-19.84.53-5.65,0-11.17-.13-16.69-.26v-11.43c3.94-.26,8.54-.26,12.88-.26,6.96,0,11.3.26,15.64.26-.13-2.1-.26-6.18-.26-10.12,0-3.15.26-11.3.26-11.69-9.99.53-19.32.53-28.51.53v-12.09c5.78-.13,11.69-.26,17.61-.26s11.69.13,17.61.26c-.13-1.97-.13-3.94-.13-5.91,0-6.31.53-12.48,1.45-18.66-12.75.26-25.1.26-37.19.26ZM253.99,18.79c0-4.2.53-13.8.79-17.61h-35.35c.39,3.15,1.31,17.08,1.31,23.65v13.8c-6.44-12.48-12.35-24.7-18.13-37.45h-40.6c.39,3.15,1.31,17.08,1.31,23.65v52.3c0,4.86-.26,11.96-.66,17.08,4.86-.13,25.89-.79,35.08-.79-.39-3.15-1.18-21.81-1.18-30.35v-15.24c7.75,13.27,19.84,36.92,23.52,46.38,6.96-.26,20.24-.66,35.08-.79-.39-3.15-1.18-21.81-1.18-30.35V18.79ZM298.53,69.38l33.77-41.13c-.26-4.34-.39-8.8-.39-13.27s.13-9.2.39-13.93h-73.32c.39,4.34.66,11.3.66,15.11,0,4.86-.26,6.83-.66,9.46h33.77l-34.03,42.84c.26,4.47.39,8.67.39,12.88s-.13,8.28-.39,12.09c46.38-.66,53.87,0,75.95,0-.79-4.47-1.05-9.2-1.05-13.93,0-3.02.66-8.54,1.05-10.78-4.6,0-26.02.66-36.14.66ZM383.54,0c-35.08,0-49.28,23.13-49.28,47.7,0,30.22,19.18,46.78,48.36,46.78s48.75-15.11,48.75-45.33S413.63,0,383.54,0ZM382.49,70.56c-8.02,0-11.17-6.96-11.17-22.86,0-14.59,3.02-23,11.3-23s11.3,9.2,11.3,23c0,15.64-3.29,22.86-11.43,22.86Z"/></svg>